<?xml version="1.0" encoding="iso-8859-1"?>
<!-- Generator: Adobe Illustrator 19.0.0, SVG Export Plug-In . SVG Version: 6.00 Build 0)  -->
<svg xmlns="http://www.w3.org/2000/svg" xmlns:xlink="http://www.w3.org/1999/xlink" version="1.1" id="Capa_1" x="0px" y="0px" viewBox="0 0 512 512" style="enable-background:new 0 0 512 512;" xml:space="preserve" width="512px" height="512px">
<g>
	<g>
		<path d="M225.244,219.139l-46.01-132.614c-2.125-6.124-7.896-10.231-14.379-10.231s-12.254,4.106-14.379,10.231l-46.012,132.614    c-2.755,7.942,1.449,16.613,9.39,19.368c7.941,2.757,16.612-1.449,19.368-9.39l11.91-34.328h39.445l11.91,34.328    c2.183,6.29,8.076,10.235,14.379,10.235c1.655,0,3.338-0.272,4.989-0.845C223.796,235.752,228,227.081,225.244,219.139z     M155.693,164.35l9.161-26.404l9.161,26.404H155.693z" fill="#FFFFFF"/>
	</g>
</g>
<g>
	<g>
		<path d="M507.433,474.64l-20.599-59.947c9.988-21.037,15.26-44.305,15.296-67.711c0.065-41.764-16.091-81.25-45.493-111.185    c-29.408-29.94-68.598-46.795-110.353-47.456c-7.654-0.124-15.225,0.3-22.674,1.234c1.881-9.374,2.912-18.929,3.065-28.597    c0.686-43.294-15.785-83.986-46.379-114.579C249.702,15.803,208.978-0.664,165.717,0.021    C123.962,0.682,84.771,17.536,55.364,47.477C25.962,77.412,9.806,116.898,9.871,158.662c0.037,23.406,5.308,46.674,15.296,67.711    L4.567,286.32c-3.527,10.264-0.951,21.409,6.725,29.083c5.402,5.401,12.521,8.277,19.844,8.277c3.081,0,6.198-0.509,9.238-1.554    l59.946-20.598c21.038,9.989,44.306,15.26,67.712,15.296c6.829-0.008,13.612-0.463,20.33-1.317    c-2.179,10.987-3.218,22.294-3.037,33.788c0.662,41.755,17.515,80.947,47.456,110.354c29.875,29.345,69.263,45.496,110.938,45.495    c0.081,0,0.166,0,0.248,0c23.406-0.037,46.674-5.309,67.712-15.296l59.946,20.598c3.041,1.045,6.157,1.554,9.238,1.554    c7.323,0,14.443-2.877,19.845-8.278C508.383,496.048,510.96,484.904,507.433,474.64z M168.282,286.385c-0.067,0-0.135,0-0.202,0    c-20.735-0.031-41.325-5.142-59.542-14.78c-3.718-1.966-8.085-2.308-12.063-0.941l-61.618,21.172l21.173-61.617    c1.367-3.978,1.027-8.346-0.941-12.064c-9.638-18.216-14.749-38.805-14.78-59.542C40.202,89.05,96.676,31.558,166.2,30.456    c34.997-0.528,67.858,12.749,92.573,37.465c24.715,24.714,38.022,57.59,37.467,92.573c-0.201,12.68-2.263,25.115-6.122,37.064    c-21.694,7.778-41.581,20.327-58.412,37.157c-14.091,14.091-25.177,30.329-32.98,47.973    C188.795,285.129,178.59,286.385,168.282,286.385z M415.524,458.983c-1.607-0.553-3.279-0.826-4.945-0.826    c-2.456,0-4.903,0.595-7.118,1.767c-18.218,9.637-38.807,14.748-59.542,14.78c-0.068,0-0.129,0-0.197,0    c-69.474,0-126.861-56.436-127.961-125.891c-0.554-34.983,12.751-67.859,37.467-92.573c24.715-24.714,57.587-37.999,92.573-37.466    c69.524,1.103,125.997,58.595,125.89,128.159c-0.032,20.736-5.143,41.325-14.78,59.542c-1.967,3.719-2.307,8.086-0.941,12.064    l21.173,61.617L415.524,458.983z" fill="#FFFFFF"/>
	</g>
</g>
<g>
	<g>
		<path d="M347.146,258.787c-28.717,0-52.08,23.362-52.08,52.079v58.895c0,23.423,15.545,43.279,36.86,49.805v15.184    c0,8.405,6.814,15.22,15.22,15.22s15.22-6.814,15.22-15.22v-15.184c21.314-6.526,36.86-26.382,36.86-49.805v-58.895    C399.225,282.15,375.863,258.787,347.146,258.787z M368.786,369.762c0,6.003-2.46,11.438-6.421,15.363v-6.634    c0-8.405-6.814-15.22-15.22-15.22c-8.405,0-15.22,6.814-15.22,15.22v6.634c-3.96-3.924-6.421-9.36-6.421-15.363v-58.895    c0-11.932,9.707-21.639,21.64-21.639c11.933,0,21.64,9.707,21.64,21.639V369.762z" fill="#FFFFFF"/>
	</g>
</g>
<g>
</g>
<g>
</g>
<g>
</g>
<g>
</g>
<g>
</g>
<g>
</g>
<g>
</g>
<g>
</g>
<g>
</g>
<g>
</g>
<g>
</g>
<g>
</g>
<g>
</g>
<g>
</g>
<g>
</g>
</svg>
