<?xml version="1.0" encoding="UTF-8"?>
<svg width="40px" height="40px" viewBox="0 0 40 40" version="1.1" xmlns="http://www.w3.org/2000/svg" xmlns:xlink="http://www.w3.org/1999/xlink">
    <!-- Generator: Sketch 52.5 (67469) - http://www.bohemiancoding.com/sketch -->
    <title>slack</title>
    <desc>Created with Sketch.</desc>
    <g id="Page-1" stroke="none" stroke-width="1" fill="none" fill-rule="evenodd">
        <g id="slack" fill="#FFFFFF" fill-rule="nonzero">
            <path d="M21.7359651,16.691428 L23.3945608,21.6500275 L18.2554923,23.3687795 L16.5968966,18.41018 L21.7359651,16.691428 Z M25.2937818,37.6344211 C12.0593914,41.6047382 6.3359472,38.5281722 2.36563008,25.2937818 C-1.60468704,12.0593914 1.47187904,6.3359472 14.7062694,2.36563008 C27.9406598,-1.60468704 33.664104,1.47187904 37.6344211,14.7062694 C41.6047382,27.9406598 38.5281722,33.664104 25.2937818,37.6344211 Z M32.2203523,20.773464 C31.8851957,19.7250253 30.7422256,19.1750246 29.6937869,19.5101813 L27.2015965,20.343776 L25.5430008,15.3851765 L28.0351912,14.5515818 C29.0836299,14.2164251 29.6336306,13.073455 29.2984739,12.0250163 C28.9633173,10.9765776 27.8203472,10.426577 26.7719085,10.7617336 L24.2797181,11.5953283 L23.4203421,9.00860656 C23.0851854,7.96016784 21.9422154,7.4101672 20.8937766,7.74532384 C19.8453379,8.08048048 19.2953373,9.22345056 19.6304939,10.2718893 L20.4898699,12.858611 L15.3508014,14.5859568 L14.4914254,11.999235 C14.1562688,10.9507963 13.0132987,10.4007957 11.96486,10.7359523 C10.9164213,11.071109 10.3664206,12.214079 10.7015773,13.2625178 L11.5609533,15.8492395 L9.06876288,16.6828342 C8.02032416,17.0179909 7.47032352,18.160961 7.80548016,19.2093997 C8.08048048,20.0086194 8.85391888,20.5328387 9.65313856,20.5672138 C10.0226702,20.6187763 10.3148581,20.4812762 12.824236,19.6476814 L14.4828317,24.606281 L11.9906413,25.4398757 C10.9422026,25.7750323 10.3922019,26.9180024 10.7273586,27.9664411 C11.0023589,28.7656608 11.7757973,29.2898802 12.575017,29.3242552 C12.9445486,29.3758178 13.2367365,29.2383176 15.7461144,28.4047229 L16.6054904,30.9914446 C16.9234595,31.9195707 17.9633045,32.589884 19.1320558,32.2547274 C20.1804946,31.9195707 20.7304952,30.7766006 20.3953386,29.7281619 L19.5359626,27.1414402 L24.675031,25.4140944 L25.534407,28.0008162 C25.8523762,28.9289422 26.8922211,29.5992555 28.0609725,29.2640989 C29.1094112,28.9289422 29.6594118,27.7859722 29.3242552,26.7375334 L28.4648792,24.1508117 L30.9570696,23.317217 C32.0055083,22.956279 32.555509,21.813309 32.2203523,20.773464 Z" id="Shape"></path>
        </g>
    </g>
</svg>